<?xml version="1.0"?>
<svg xmlns="http://www.w3.org/2000/svg" viewBox="0 0 64 64">
    <path d="M 32 3 C 16.009 3 3 16.009 3 32 C 3 47.991 16.009 61 32 61 C 47.991 61 61 47.991 61 32 C 61 16.009 47.991 3 32 3 z M 32 5 C 46.888 5 59 17.112 59 32 C 59 46.888 46.888 59 32 59 C 17.112 59 5 46.888 5 32 C 5 17.112 17.112 5 32 5 z M 31.5625 9.0058594 C 25.66985 9.1263792 19.962469 11.511328 15.738281 15.736328 C 11.393281 20.081328 9 25.856 9 32 C 9 38.144 11.392328 43.919672 15.736328 48.263672 C 15.931328 48.458672 16.187359 48.556641 16.443359 48.556641 C 16.699359 48.556641 16.955391 48.458672 17.150391 48.263672 C 17.541391 47.872672 17.541391 47.240609 17.150391 46.849609 C 13.184391 42.883609 11 37.609 11 32 C 11 26.391 13.184391 21.116391 17.150391 17.150391 C 21.898391 12.401391 28.694891 10.200625 35.337891 11.265625 C 35.888891 11.354625 36.397375 10.980547 36.484375 10.435547 C 36.571375 9.8905469 36.199297 9.3760625 35.654297 9.2890625 C 34.290609 9.070625 32.922342 8.9780471 31.5625 9.0058594 z M 39.660156 10.386719 C 39.271094 10.403219 38.911125 10.647406 38.765625 11.035156 C 38.571625 11.552156 38.833562 12.128266 39.351562 12.322266 C 40.063563 12.589266 40.769219 12.897234 41.449219 13.240234 C 41.594219 13.313234 41.748391 13.347656 41.900391 13.347656 C 42.266391 13.347656 42.618922 13.146828 42.794922 12.798828 C 43.043922 12.305828 42.844563 11.703078 42.351562 11.455078 C 41.605562 11.079078 40.832734 10.741219 40.052734 10.449219 C 39.923734 10.400969 39.789844 10.381219 39.660156 10.386719 z M 45.433594 13.675781 C 45.179344 13.706281 44.935625 13.832781 44.765625 14.050781 C 44.424625 14.485781 44.500547 15.114078 44.935547 15.455078 C 45.600547 15.976078 46.245609 16.546391 46.849609 17.150391 C 50.815609 21.116391 53 26.391 53 32 C 53 37.609 50.815609 42.883609 46.849609 46.849609 C 46.458609 47.240609 46.458609 47.872672 46.849609 48.263672 C 47.044609 48.458672 47.300641 48.556641 47.556641 48.556641 C 47.812641 48.556641 48.068672 48.458672 48.263672 48.263672 C 52.607672 43.919672 55 38.144 55 32 C 55 25.856 52.607672 20.080328 48.263672 15.736328 C 47.602672 15.075328 46.897922 14.450859 46.169922 13.880859 C 45.952922 13.710859 45.687844 13.645281 45.433594 13.675781 z M 32 15 C 31.74425 15 31.488469 15.097469 31.292969 15.292969 L 19.292969 27.292969 C 18.901969 27.683969 18.901969 28.316031 19.292969 28.707031 L 23.292969 32.707031 C 23.683969 33.098031 24.316031 33.098031 24.707031 32.707031 L 28 29.414062 L 28 45 C 28 45.552 28.448 46 29 46 L 35 46 C 35.552 46 36 45.552 36 45 L 36 29.414062 L 39.292969 32.707031 C 39.683969 33.098031 40.316031 33.098031 40.707031 32.707031 L 44.707031 28.707031 C 45.098031 28.316031 45.098031 27.683969 44.707031 27.292969 L 32.707031 15.292969 C 32.511531 15.097469 32.25575 15 32 15 z M 32 17.414062 L 42.585938 28 L 40 30.585938 L 35.707031 26.292969 C 35.420031 26.005969 34.991187 25.920172 34.617188 26.076172 C 34.244188 26.231172 34 26.596 34 27 L 34 44 L 30 44 L 30 27 C 30 26.596 29.755813 26.231172 29.382812 26.076172 C 29.007812 25.920172 28.578969 26.005969 28.292969 26.292969 L 24 30.585938 L 21.414062 28 L 32 17.414062 z M 22.373047 48.394531 C 21.986187 48.346625 21.591766 48.528219 21.384766 48.886719 L 20.384766 50.619141 C 20.108766 51.097141 20.272 51.708375 20.75 51.984375 C 20.907 52.075375 21.079047 52.119141 21.248047 52.119141 C 21.594047 52.119141 21.930234 51.940141 22.115234 51.619141 L 23.115234 49.886719 C 23.391234 49.409719 23.229 48.798484 22.75 48.521484 C 22.63025 48.452484 22.502 48.4105 22.373047 48.394531 z M 41.625 48.394531 C 41.496141 48.410625 41.36925 48.452234 41.25 48.521484 C 40.771 48.797484 40.608766 49.410672 40.884766 49.888672 L 41.884766 51.619141 C 42.070766 51.940141 42.405953 52.119141 42.751953 52.119141 C 42.920953 52.119141 43.093 52.077328 43.25 51.986328 C 43.729 51.710328 43.891234 51.097141 43.615234 50.619141 L 42.615234 48.888672 C 42.408234 48.529422 42.011578 48.34625 41.625 48.394531 z M 26.814453 50.34375 C 26.427828 50.397188 26.092828 50.675672 25.986328 51.076172 L 25.46875 53.009766 C 25.32575 53.543766 25.642781 54.091375 26.175781 54.234375 C 26.262781 54.257375 26.350547 54.269531 26.435547 54.269531 C 26.877547 54.269531 27.281391 53.974344 27.400391 53.527344 L 27.917969 51.595703 C 28.061969 51.061703 27.745891 50.511141 27.212891 50.369141 C 27.078891 50.333141 26.943328 50.325938 26.814453 50.34375 z M 37.185547 50.34375 C 37.056703 50.325938 36.921359 50.333141 36.787109 50.369141 C 36.254109 50.512141 35.937078 51.061703 36.080078 51.595703 L 36.599609 53.527344 C 36.719609 53.974344 37.122453 54.269531 37.564453 54.269531 C 37.649453 54.269531 37.735266 54.258375 37.822266 54.234375 C 38.355266 54.091375 38.672297 53.543766 38.529297 53.009766 L 38.013672 51.076172 C 37.906422 50.675672 37.572078 50.397187 37.185547 50.34375 z M 32 51 C 31.448 51 31 51.448 31 52 L 31 54 C 31 54.552 31.448 55 32 55 C 32.552 55 33 54.552 33 54 L 33 52 C 33 51.448 32.552 51 32 51 z"/>
</svg>
